<?xml version="1.0" encoding="UTF-8"?>
<svg width="16px" height="11px" viewBox="0 0 16 11" version="1.1" xmlns="http://www.w3.org/2000/svg" xmlns:xlink="http://www.w3.org/1999/xlink">
    <title>路径</title>
    <g id="页面-1" stroke="none" stroke-width="1" fill="none" fill-rule="evenodd">
        <g id="首页2" transform="translate(-1525.000000, -19.000000)" fill="#FFFFFF" fill-rule="nonzero">
            <g id="编组-3" transform="translate(1408.000000, 0.000000)">
                <path d="M130.21268,23.5341209 L117.593823,23.5341209 C117.268901,23.5341209 117,23.7980786 117,24.1170274 C117,24.4359763 117.268901,24.699934 117.593823,24.699934 L130.21268,24.699934 L126.784194,28.2083712 C126.672152,28.3293518 126.627335,28.4613307 126.627335,28.6043077 C126.627335,28.758283 126.683356,28.9122583 126.806602,29.0222407 C127.041891,29.2422054 127.422834,29.2312072 127.635713,29.0112425 L132.016556,24.5239622 L132.02776,24.5129639 L132.050169,24.4909675 C132.061373,24.4799692 132.061373,24.4799692 132.061373,24.468971 C132.072577,24.4579728 132.072577,24.4579728 132.072577,24.4469745 C132.083781,24.4359763 132.083781,24.4359763 132.083781,24.4249781 C132.094986,24.4139798 132.094986,24.4139798 132.094986,24.4029816 C132.10619,24.3919833 132.10619,24.3919833 132.10619,24.3699869 C132.117394,24.3589886 132.117394,24.3589886 132.117394,24.3479904 C132.117394,24.3369922 132.128598,24.3369922 132.128598,24.3149957 C132.128598,24.3039975 132.139802,24.3039975 132.139802,24.282001 C132.139802,24.2710028 132.151007,24.2600045 132.151007,24.2490063 C132.151007,24.238008 132.162211,24.238008 132.162211,24.2160116 C132.162211,24.2050133 132.162211,24.1940151 132.173415,24.1830169 L132.173415,24.1610204 C132.184619,24.1280257 132.184619,24.0840327 132.173415,24.0400398 L132.173415,24.0180433 C132.173415,24.0070451 132.173415,23.9960469 132.162211,23.9850486 C132.162211,23.9740504 132.151007,23.9740504 132.151007,23.9520539 C132.151007,23.9410557 132.139802,23.9300574 132.139802,23.9190592 C132.139802,23.908061 132.128598,23.908061 132.128598,23.8860645 C132.128598,23.8750663 132.117394,23.8750663 132.117394,23.8530698 C132.117394,23.8420715 132.10619,23.8420715 132.10619,23.8310733 C132.094986,23.8200751 132.094986,23.8200751 132.094986,23.7980786 C132.083781,23.7870804 132.083781,23.7870804 132.083781,23.7760821 C132.072577,23.7650839 132.072577,23.7650839 132.072577,23.7540857 C132.061373,23.7430874 132.061373,23.7430874 132.061373,23.7320892 C132.050169,23.721091 132.050169,23.721091 132.050169,23.7100927 L132.02776,23.6880962 L132.016556,23.677098 L127.635713,19.1788195 C127.411629,18.9478565 127.041891,18.9368583 126.806602,19.1678213 C126.571314,19.4207807 126.56011,19.7947207 126.784194,20.0256837 L130.21268,23.5341209 Z" id="路径"></path>
            </g>
        </g>
    </g>
</svg>